<mxfile host="www.draw.io" modified="2019-11-11T13:11:59.308Z" agent="Mozilla/5.0 (Windows NT 10.0; Win64; x64) AppleWebKit/537.36 (KHTML, like Gecko) Chrome/77.0.3865.120 Safari/537.36 OPR/64.0.3417.92" etag="kI1dCwTmm2PBbSy1eUa3" version="12.2.3" type="github" pages="1">
  <diagram id="ETvOs4oYfm9ynpPtL2Xn" name="Page-1">
    <mxGraphModel dx="291" dy="1285" grid="1" gridSize="10" guides="1" tooltips="1" connect="1" arrows="1" fold="1" page="1" pageScale="1" pageWidth="850" pageHeight="1100" math="0" shadow="0">
      <root>
        <mxCell id="0"/>
        <mxCell id="1" parent="0"/>
        <mxCell id="66uy7_FQ2YqTNPjcbpDb-1" value="&lt;font style=&quot;font-size: 100px&quot; color=&quot;#0000ff&quot;&gt;S&lt;/font&gt;" style="text;html=1;strokeColor=none;fillColor=none;align=center;verticalAlign=middle;whiteSpace=wrap;rounded=0;rotation=45;" vertex="1" parent="1">
          <mxGeometry x="140" y="80" width="460" height="330" as="geometry"/>
        </mxCell>
        <mxCell id="66uy7_FQ2YqTNPjcbpDb-3" value="&lt;font style=&quot;font-size: 100px&quot; color=&quot;#0000ff&quot;&gt;S&lt;/font&gt;" style="text;html=1;strokeColor=none;fillColor=none;align=center;verticalAlign=middle;whiteSpace=wrap;rounded=0;rotation=141;direction=south;" vertex="1" parent="1">
          <mxGeometry x="250" y="15" width="330" height="460" as="geometry"/>
        </mxCell>
        <mxCell id="66uy7_FQ2YqTNPjcbpDb-4" value="&lt;font style=&quot;font-size: 100px&quot; color=&quot;#0000ff&quot;&gt;S&lt;/font&gt;" style="text;html=1;strokeColor=none;fillColor=none;align=center;verticalAlign=middle;whiteSpace=wrap;rounded=0;rotation=0;" vertex="1" parent="1">
          <mxGeometry x="160" y="40" width="460" height="330" as="geometry"/>
        </mxCell>
        <mxCell id="66uy7_FQ2YqTNPjcbpDb-5" value="" style="ellipse;whiteSpace=wrap;html=1;aspect=fixed;opacity=40;strokeWidth=10;strokeColor=#0000FF;" vertex="1" parent="1">
          <mxGeometry x="310" y="150" width="160" height="160" as="geometry"/>
        </mxCell>
      </root>
    </mxGraphModel>
  </diagram>
</mxfile>
